<mxfile host="app.diagrams.net" agent="Mozilla/5.0 (Windows NT 10.0; Win64; x64) AppleWebKit/537.36 (KHTML, like Gecko) Chrome/132.0.0.0 Safari/537.36" version="26.0.10">
  <diagram name="Page-1" id="e7e014a7-5840-1c2e-5031-d8a46d1fe8dd">
    <mxGraphModel dx="2843" dy="772" grid="1" gridSize="10" guides="1" tooltips="1" connect="1" arrows="1" fold="1" page="1" pageScale="1" pageWidth="1169" pageHeight="826" background="none" math="0" shadow="0">
      <root>
        <mxCell id="0" />
        <mxCell id="1" parent="0" />
        <mxCell id="2" value="Intro to Software documentation" style="swimlane;whiteSpace=wrap;fontFamily=Verdana;" parent="1" vertex="1">
          <mxGeometry x="-880" y="120" width="680" height="1870" as="geometry" />
        </mxCell>
        <mxCell id="Sq-dpYa1ZeV3uEKY72W7-112" value="&lt;div&gt;Describes what the end user sees and how it works in general.&amp;nbsp;&lt;/div&gt;&lt;div&gt;&lt;br&gt;&lt;/div&gt;" style="shape=note;whiteSpace=wrap;html=1;backgroundOutline=1;darkOpacity=0.05;" parent="2" vertex="1">
          <mxGeometry x="10" y="310" width="140" height="150" as="geometry" />
        </mxCell>
        <mxCell id="7" value="Planning" style="" parent="2" vertex="1">
          <mxGeometry x="530" y="160" width="110" height="50" as="geometry" />
        </mxCell>
        <mxCell id="8" value="Preparing" style="" parent="2" vertex="1">
          <mxGeometry x="530" y="270" width="110" height="50" as="geometry" />
        </mxCell>
        <mxCell id="9" value="" style="endArrow=open;strokeColor=#FF0000;endFill=1;rounded=0" parent="2" source="7" target="8" edge="1">
          <mxGeometry relative="1" as="geometry" />
        </mxCell>
        <mxCell id="10" value="CreatingÂ &#xa;documentation" style="" parent="2" vertex="1">
          <mxGeometry x="530" y="375" width="110" height="50" as="geometry" />
        </mxCell>
        <mxCell id="11" value="" style="endArrow=open;strokeColor=#FF0000;endFill=1;rounded=0" parent="2" source="8" target="10" edge="1">
          <mxGeometry relative="1" as="geometry" />
        </mxCell>
        <mxCell id="12" value="" style="edgeStyle=elbowEdgeStyle;elbow=horizontal;strokeColor=#FF0000;endArrow=open;endFill=1;rounded=0;exitX=0;exitY=0.5;exitDx=0;exitDy=0;" parent="2" source="Sq-dpYa1ZeV3uEKY72W7-87" target="7" edge="1">
          <mxGeometry width="100" height="100" relative="1" as="geometry">
            <mxPoint x="630" y="340" as="sourcePoint" />
            <mxPoint x="730" y="240" as="targetPoint" />
            <Array as="points">
              <mxPoint x="500" y="300" />
            </Array>
          </mxGeometry>
        </mxCell>
        <mxCell id="Sq-dpYa1ZeV3uEKY72W7-83" value="Deliver to end user" style="rounded=0;whiteSpace=wrap;html=1;" parent="2" vertex="1">
          <mxGeometry x="540" y="560" width="110" height="50" as="geometry" />
        </mxCell>
        <mxCell id="Sq-dpYa1ZeV3uEKY72W7-87" value="Maintain/improve content" style="rounded=0;whiteSpace=wrap;html=1;" parent="2" vertex="1">
          <mxGeometry x="540" y="650" width="110" height="50" as="geometry" />
        </mxCell>
        <mxCell id="Sq-dpYa1ZeV3uEKY72W7-88" value="" style="endArrow=classic;html=1;rounded=0;exitX=0.5;exitY=1;exitDx=0;exitDy=0;fillColor=#f8cecc;strokeColor=#FF0000;" parent="2" source="Sq-dpYa1ZeV3uEKY72W7-83" target="Sq-dpYa1ZeV3uEKY72W7-87" edge="1">
          <mxGeometry width="50" height="50" relative="1" as="geometry">
            <mxPoint x="845" y="515" as="sourcePoint" />
            <mxPoint x="845" y="570" as="targetPoint" />
          </mxGeometry>
        </mxCell>
        <mxCell id="Sq-dpYa1ZeV3uEKY72W7-90" value="Full Process" style="ellipse;whiteSpace=wrap;html=1;fillColor=#4D9900;" parent="2" vertex="1">
          <mxGeometry x="545" y="60" width="80" height="60" as="geometry" />
        </mxCell>
        <mxCell id="Sq-dpYa1ZeV3uEKY72W7-102" value="Common document types" style="rounded=1;whiteSpace=wrap;html=1;" parent="2" vertex="1">
          <mxGeometry x="180" y="70" width="130" height="60" as="geometry" />
        </mxCell>
        <mxCell id="Sq-dpYa1ZeV3uEKY72W7-106" value="Functional documentation" style="whiteSpace=wrap;html=1;align=center;verticalAlign=middle;treeFolding=1;treeMoving=1;" parent="2" vertex="1" collapsed="1">
          <mxGeometry x="80" y="185" width="100" height="60" as="geometry" />
        </mxCell>
        <mxCell id="Sq-dpYa1ZeV3uEKY72W7-107" value="Task Oriented documentation" style="whiteSpace=wrap;html=1;align=center;verticalAlign=middle;treeFolding=1;treeMoving=1;" parent="2" vertex="1">
          <mxGeometry x="310" y="185" width="100" height="60" as="geometry" />
        </mxCell>
        <mxCell id="Sq-dpYa1ZeV3uEKY72W7-113" value="Guides users through the steps of a specific process.&lt;div&gt;It often answers to the user&#39;s questions&lt;/div&gt;" style="shape=note;whiteSpace=wrap;html=1;backgroundOutline=1;darkOpacity=0.05;" parent="2" vertex="1">
          <mxGeometry x="340" y="310" width="134" height="150" as="geometry" />
        </mxCell>
        <mxCell id="Sq-dpYa1ZeV3uEKY72W7-115" value="" style="endArrow=none;dashed=1;html=1;rounded=0;exitX=0;exitY=0;exitDx=25;exitDy=0;exitPerimeter=0;entryX=0.5;entryY=1;entryDx=0;entryDy=0;fillColor=#f8cecc;strokeColor=#b85450;" parent="2" source="Sq-dpYa1ZeV3uEKY72W7-113" target="Sq-dpYa1ZeV3uEKY72W7-107" edge="1">
          <mxGeometry width="50" height="50" relative="1" as="geometry">
            <mxPoint x="165" y="300" as="sourcePoint" />
            <mxPoint x="190" y="255" as="targetPoint" />
          </mxGeometry>
        </mxCell>
        <mxCell id="Sq-dpYa1ZeV3uEKY72W7-121" value="" style="shape=line;html=1;strokeWidth=6;strokeColor=#ff0000;" parent="2" vertex="1">
          <mxGeometry x="180" y="210" width="130" height="10" as="geometry" />
        </mxCell>
        <mxCell id="Sq-dpYa1ZeV3uEKY72W7-122" value="" style="edgeStyle=orthogonalEdgeStyle;html=1;verticalAlign=bottom;endArrow=open;endSize=8;strokeColor=#ff0000;rounded=0;entryX=0.5;entryY=0;entryDx=0;entryDy=0;" parent="2" source="Sq-dpYa1ZeV3uEKY72W7-121" target="Sq-dpYa1ZeV3uEKY72W7-129" edge="1">
          <mxGeometry relative="1" as="geometry">
            <mxPoint x="245" y="300" as="targetPoint" />
          </mxGeometry>
        </mxCell>
        <mxCell id="Sq-dpYa1ZeV3uEKY72W7-128" value="" style="endArrow=none;html=1;rounded=0;exitX=0.513;exitY=0.557;exitDx=0;exitDy=0;exitPerimeter=0;entryX=0.5;entryY=1;entryDx=0;entryDy=0;fillColor=#f8cecc;strokeColor=#b85450;" parent="2" source="Sq-dpYa1ZeV3uEKY72W7-121" target="Sq-dpYa1ZeV3uEKY72W7-102" edge="1">
          <mxGeometry width="50" height="50" relative="1" as="geometry">
            <mxPoint x="980" y="480" as="sourcePoint" />
            <mxPoint x="1030" y="430" as="targetPoint" />
          </mxGeometry>
        </mxCell>
        <mxCell id="Sq-dpYa1ZeV3uEKY72W7-129" value="&#xa;&lt;span style=&quot;color: rgb(0, 0, 0); font-family: Helvetica; font-size: 12px; font-style: normal; font-variant-ligatures: normal; font-variant-caps: normal; font-weight: 400; letter-spacing: normal; orphans: 2; text-align: center; text-indent: 0px; text-transform: none; widows: 2; word-spacing: 0px; -webkit-text-stroke-width: 0px; white-space: normal; background-color: rgb(251, 251, 251); text-decoration-thickness: initial; text-decoration-style: initial; text-decoration-color: initial; display: inline !important; float: none;&quot;&gt;Use visuals: Screenshots, info-graphics, diagrams, videos...&lt;/span&gt;&#xa;&#xa;" style="rounded=0;whiteSpace=wrap;html=1;" parent="2" vertex="1">
          <mxGeometry x="185" y="290" width="120" height="80" as="geometry" />
        </mxCell>
        <mxCell id="Sq-dpYa1ZeV3uEKY72W7-114" value="" style="endArrow=none;dashed=1;html=1;rounded=0;exitX=0.5;exitY=0;exitDx=0;exitDy=0;exitPerimeter=0;entryX=0.5;entryY=1;entryDx=0;entryDy=0;fillColor=#f8cecc;strokeColor=#b85450;" parent="2" source="Sq-dpYa1ZeV3uEKY72W7-112" target="Sq-dpYa1ZeV3uEKY72W7-106" edge="1">
          <mxGeometry width="50" height="50" relative="1" as="geometry">
            <mxPoint x="100" y="320" as="sourcePoint" />
            <mxPoint x="1050" y="40" as="targetPoint" />
          </mxGeometry>
        </mxCell>
        <mxCell id="Sq-dpYa1ZeV3uEKY72W7-92" value="" style="endArrow=classic;html=1;rounded=0;exitX=0.5;exitY=1;exitDx=0;exitDy=0;fillColor=#f8cecc;strokeColor=#FF0000;entryX=0.5;entryY=0;entryDx=0;entryDy=0;" parent="2" source="Sq-dpYa1ZeV3uEKY72W7-90" target="7" edge="1">
          <mxGeometry width="50" height="50" relative="1" as="geometry">
            <mxPoint x="645" y="580" as="sourcePoint" />
            <mxPoint x="635" y="200" as="targetPoint" />
          </mxGeometry>
        </mxCell>
        <mxCell id="ZXMrNNtx2-XyOc_h4c_R-25" value="Strategy:&lt;div&gt;- Identify the tasks the user needs to perform.&lt;/div&gt;&lt;div&gt;- Sequence them in a logical order.&lt;/div&gt;&lt;div&gt;- Add supporting concepts and information.&lt;/div&gt;&lt;div&gt;-&amp;nbsp;&lt;span style=&quot;background-color: transparent; color: light-dark(rgb(0, 0, 0), rgb(255, 255, 255));&quot;&gt;Add supporting reference info for when the users will be more skilled.&lt;/span&gt;&lt;/div&gt;" style="text;strokeColor=none;fillColor=none;align=left;verticalAlign=middle;spacingLeft=4;spacingRight=4;overflow=hidden;points=[[0,0.5],[1,0.5]];portConstraint=eastwest;rotatable=0;whiteSpace=wrap;html=1;" vertex="1" parent="2">
          <mxGeometry x="105" y="536" width="200" height="170" as="geometry" />
        </mxCell>
        <mxCell id="ZXMrNNtx2-XyOc_h4c_R-26" style="edgeStyle=orthogonalEdgeStyle;rounded=0;orthogonalLoop=1;jettySize=auto;html=1;entryX=0.505;entryY=0;entryDx=0;entryDy=0;entryPerimeter=0;exitX=0.455;exitY=1.007;exitDx=0;exitDy=0;exitPerimeter=0;" edge="1" parent="2" target="ZXMrNNtx2-XyOc_h4c_R-25" source="Sq-dpYa1ZeV3uEKY72W7-113">
          <mxGeometry relative="1" as="geometry">
            <mxPoint x="450" y="550" as="targetPoint" />
            <mxPoint x="400" y="470" as="sourcePoint" />
          </mxGeometry>
        </mxCell>
        <mxCell id="ZXMrNNtx2-XyOc_h4c_R-29" value="" style="edgeStyle=orthogonalEdgeStyle;rounded=0;orthogonalLoop=1;jettySize=auto;html=1;strokeColor=light-dark(#FF0000,#FFFFFF);" edge="1" parent="2" source="ZXMrNNtx2-XyOc_h4c_R-27" target="ZXMrNNtx2-XyOc_h4c_R-28">
          <mxGeometry relative="1" as="geometry" />
        </mxCell>
        <mxCell id="ZXMrNNtx2-XyOc_h4c_R-27" value="Research and collect information" style="rounded=0;whiteSpace=wrap;html=1;" vertex="1" parent="2">
          <mxGeometry x="10" y="820" width="120" height="60" as="geometry" />
        </mxCell>
        <mxCell id="ZXMrNNtx2-XyOc_h4c_R-32" value="" style="edgeStyle=orthogonalEdgeStyle;rounded=0;orthogonalLoop=1;jettySize=auto;html=1;strokeColor=light-dark(#FF0000,#FFFFFF);" edge="1" parent="2" source="ZXMrNNtx2-XyOc_h4c_R-28" target="ZXMrNNtx2-XyOc_h4c_R-30">
          <mxGeometry relative="1" as="geometry" />
        </mxCell>
        <mxCell id="ZXMrNNtx2-XyOc_h4c_R-28" value="Begin writing all the info down&amp;nbsp;" style="rounded=0;whiteSpace=wrap;html=1;" vertex="1" parent="2">
          <mxGeometry x="190" y="820" width="120" height="60" as="geometry" />
        </mxCell>
        <mxCell id="ZXMrNNtx2-XyOc_h4c_R-34" value="" style="edgeStyle=orthogonalEdgeStyle;rounded=0;orthogonalLoop=1;jettySize=auto;html=1;strokeColor=light-dark(#FF0000,#FFFFFF);" edge="1" parent="2" source="ZXMrNNtx2-XyOc_h4c_R-30" target="ZXMrNNtx2-XyOc_h4c_R-33">
          <mxGeometry relative="1" as="geometry" />
        </mxCell>
        <mxCell id="ZXMrNNtx2-XyOc_h4c_R-30" value="Structure and organize the info into a first draft" style="rounded=0;whiteSpace=wrap;html=1;" vertex="1" parent="2">
          <mxGeometry x="354" y="820" width="120" height="60" as="geometry" />
        </mxCell>
        <mxCell id="ZXMrNNtx2-XyOc_h4c_R-43" value="" style="edgeStyle=orthogonalEdgeStyle;rounded=0;orthogonalLoop=1;jettySize=auto;html=1;strokeColor=light-dark(#FF0000,#FFFFFF);" edge="1" parent="2" source="ZXMrNNtx2-XyOc_h4c_R-33" target="ZXMrNNtx2-XyOc_h4c_R-42">
          <mxGeometry relative="1" as="geometry" />
        </mxCell>
        <mxCell id="ZXMrNNtx2-XyOc_h4c_R-33" value="Ask for feedback from Stakeholders and SMEs" style="rounded=0;whiteSpace=wrap;html=1;" vertex="1" parent="2">
          <mxGeometry x="505" y="820" width="120" height="60" as="geometry" />
        </mxCell>
        <mxCell id="ZXMrNNtx2-XyOc_h4c_R-46" value="" style="edgeStyle=orthogonalEdgeStyle;rounded=0;orthogonalLoop=1;jettySize=auto;html=1;strokeColor=light-dark(#FF0000,#FFFFFF);" edge="1" parent="2" source="ZXMrNNtx2-XyOc_h4c_R-42" target="ZXMrNNtx2-XyOc_h4c_R-44">
          <mxGeometry relative="1" as="geometry" />
        </mxCell>
        <mxCell id="ZXMrNNtx2-XyOc_h4c_R-42" value="Reflect on the feedback and revise the documentation accordingly" style="rounded=0;whiteSpace=wrap;html=1;" vertex="1" parent="2">
          <mxGeometry x="505" y="920" width="120" height="60" as="geometry" />
        </mxCell>
        <mxCell id="ZXMrNNtx2-XyOc_h4c_R-47" value="" style="edgeStyle=orthogonalEdgeStyle;rounded=0;orthogonalLoop=1;jettySize=auto;html=1;strokeColor=light-dark(#FF0000,#FFFFFF);" edge="1" parent="2" source="ZXMrNNtx2-XyOc_h4c_R-44" target="ZXMrNNtx2-XyOc_h4c_R-45">
          <mxGeometry relative="1" as="geometry" />
        </mxCell>
        <mxCell id="ZXMrNNtx2-XyOc_h4c_R-44" value="Prepare final delivery" style="rounded=0;whiteSpace=wrap;html=1;" vertex="1" parent="2">
          <mxGeometry x="354" y="920" width="120" height="60" as="geometry" />
        </mxCell>
        <mxCell id="ZXMrNNtx2-XyOc_h4c_R-49" value="" style="edgeStyle=orthogonalEdgeStyle;rounded=0;orthogonalLoop=1;jettySize=auto;html=1;strokeColor=light-dark(#FF0000,#FFFFFF);" edge="1" parent="2" source="ZXMrNNtx2-XyOc_h4c_R-45" target="ZXMrNNtx2-XyOc_h4c_R-48">
          <mxGeometry relative="1" as="geometry" />
        </mxCell>
        <mxCell id="ZXMrNNtx2-XyOc_h4c_R-45" value="Publish" style="rounded=0;whiteSpace=wrap;html=1;" vertex="1" parent="2">
          <mxGeometry x="185" y="920" width="120" height="60" as="geometry" />
        </mxCell>
        <mxCell id="ZXMrNNtx2-XyOc_h4c_R-48" value="Collect feedback and maintain documentation" style="rounded=0;whiteSpace=wrap;html=1;" vertex="1" parent="2">
          <mxGeometry x="10" y="920" width="120" height="60" as="geometry" />
        </mxCell>
        <mxCell id="ZXMrNNtx2-XyOc_h4c_R-59" value="" style="curved=1;endArrow=classic;html=1;rounded=0;exitX=0;exitY=0.5;exitDx=0;exitDy=0;entryX=0.433;entryY=-0.033;entryDx=0;entryDy=0;entryPerimeter=0;strokeColor=light-dark(#4D9900,#FFFFFF);" edge="1" parent="2" source="10" target="ZXMrNNtx2-XyOc_h4c_R-27">
          <mxGeometry width="50" height="50" relative="1" as="geometry">
            <mxPoint x="530" y="620" as="sourcePoint" />
            <mxPoint x="580" y="570" as="targetPoint" />
            <Array as="points">
              <mxPoint x="440" y="540" />
              <mxPoint x="450" y="580" />
              <mxPoint x="380" y="740" />
            </Array>
          </mxGeometry>
        </mxCell>
        <mxCell id="ZXMrNNtx2-XyOc_h4c_R-60" value="Detailed Process" style="edgeLabel;html=1;align=center;verticalAlign=middle;resizable=0;points=[];fillColor=#97D077;" vertex="1" connectable="0" parent="ZXMrNNtx2-XyOc_h4c_R-59">
          <mxGeometry x="-0.0751" y="-6" relative="1" as="geometry">
            <mxPoint as="offset" />
          </mxGeometry>
        </mxCell>
        <mxCell id="3" value="Information architecture" style="swimlane;whiteSpace=wrap;fontFamily=Verdana;" parent="1" vertex="1">
          <mxGeometry x="-200" y="120" width="450" height="1330" as="geometry" />
        </mxCell>
        <mxCell id="Sq-dpYa1ZeV3uEKY72W7-156" value="" style="edgeStyle=orthogonalEdgeStyle;rounded=0;orthogonalLoop=1;jettySize=auto;html=1;entryX=0;entryY=0.5;entryDx=0;entryDy=0;fillColor=#f8cecc;strokeColor=#FF0000;" parent="3" source="15" target="Sq-dpYa1ZeV3uEKY72W7-177" edge="1">
          <mxGeometry relative="1" as="geometry">
            <mxPoint x="210" y="275" as="targetPoint" />
          </mxGeometry>
        </mxCell>
        <mxCell id="15" value="Build company strategy" style="" parent="3" vertex="1">
          <mxGeometry x="20" y="250" width="140" height="50" as="geometry" />
        </mxCell>
        <mxCell id="18" value="Structure/organizeÂ &#xa;content" style="" parent="3" vertex="1">
          <mxGeometry x="20" y="465" width="110" height="50" as="geometry" />
        </mxCell>
        <mxCell id="19" value="" style="endArrow=open;strokeColor=#FF0000;endFill=1;rounded=0;exitX=0.5;exitY=1;exitDx=0;exitDy=0;" parent="3" source="15" target="18" edge="1">
          <mxGeometry relative="1" as="geometry">
            <mxPoint x="81" y="310" as="sourcePoint" />
          </mxGeometry>
        </mxCell>
        <mxCell id="Sq-dpYa1ZeV3uEKY72W7-81" value="Classify content (metadata, labelling...)" style="rounded=0;whiteSpace=wrap;html=1;" parent="3" vertex="1">
          <mxGeometry x="240" y="465" width="120" height="50" as="geometry" />
        </mxCell>
        <mxCell id="Sq-dpYa1ZeV3uEKY72W7-159" style="edgeStyle=orthogonalEdgeStyle;rounded=0;orthogonalLoop=1;jettySize=auto;html=1;entryX=0.5;entryY=0;entryDx=0;entryDy=0;fillColor=#f8cecc;strokeColor=#FF0000;" parent="3" source="Sq-dpYa1ZeV3uEKY72W7-154" target="15" edge="1">
          <mxGeometry relative="1" as="geometry" />
        </mxCell>
        <mxCell id="Sq-dpYa1ZeV3uEKY72W7-154" value="&lt;font style=&quot;font-size: 14px;&quot; face=&quot;Verdana&quot;&gt;Definition:&lt;/font&gt;&lt;div&gt;&lt;font style=&quot;font-size: 14px;&quot; face=&quot;Verdana&quot;&gt;The science of organizing large sets of information in a consistent and logical manner that maximizes User experience&lt;/font&gt;&lt;/div&gt;" style="ellipse;shape=cloud;whiteSpace=wrap;html=1;fillColor=#dae8fc;strokeColor=#6c8ebf;" parent="3" vertex="1">
          <mxGeometry y="30" width="410" height="150" as="geometry" />
        </mxCell>
        <mxCell id="Sq-dpYa1ZeV3uEKY72W7-182" value="" style="group" parent="3" vertex="1" connectable="0">
          <mxGeometry x="210" y="193" width="240" height="210" as="geometry" />
        </mxCell>
        <mxCell id="Sq-dpYa1ZeV3uEKY72W7-177" value="&lt;ul&gt;&lt;li&gt;&lt;span style=&quot;background-color: transparent; color: light-dark(rgb(0, 0, 0), rgb(255, 255, 255));&quot;&gt;&lt;font style=&quot;font-size: 13px;&quot;&gt;User experience&lt;/font&gt;&lt;/span&gt;&lt;/li&gt;&lt;li&gt;&lt;div&gt;&lt;font style=&quot;font-size: 13px;&quot;&gt;Overall organization&lt;/font&gt;&lt;div&gt;&lt;/div&gt;&lt;/div&gt;&lt;/li&gt;&lt;li&gt;&lt;span style=&quot;background-color: transparent; color: light-dark(rgb(0, 0, 0), rgb(255, 255, 255));&quot;&gt;&lt;div&gt;&lt;font style=&quot;font-size: 13px;&quot;&gt;Navigation through the content&lt;/font&gt;&lt;/div&gt;&lt;/span&gt;&lt;/li&gt;&lt;li&gt;&lt;span style=&quot;background-color: transparent; color: light-dark(rgb(0, 0, 0), rgb(255, 255, 255));&quot;&gt;&lt;font style=&quot;font-size: 13px;&quot;&gt;How to search for content&lt;/font&gt;&lt;/span&gt;&lt;/li&gt;&lt;li&gt;&lt;font style=&quot;font-size: 13px;&quot;&gt;Labeling&lt;/font&gt;&lt;/li&gt;&lt;li&gt;&lt;font style=&quot;font-size: 13px;&quot;&gt;Harmonize across departments&lt;/font&gt;&lt;/li&gt;&lt;/ul&gt;" style="text;strokeColor=none;fillColor=none;html=1;whiteSpace=wrap;verticalAlign=middle;overflow=hidden;" parent="Sq-dpYa1ZeV3uEKY72W7-182" vertex="1">
          <mxGeometry y="20" width="240" height="190" as="geometry" />
        </mxCell>
        <mxCell id="Sq-dpYa1ZeV3uEKY72W7-181" value="&lt;font style=&quot;font-size: 16px;&quot;&gt;Things to keep in mind&lt;/font&gt;" style="text;strokeColor=none;fillColor=none;html=1;fontSize=24;fontStyle=1;verticalAlign=middle;align=center;" parent="Sq-dpYa1ZeV3uEKY72W7-182" vertex="1">
          <mxGeometry x="45" width="100" height="40" as="geometry" />
        </mxCell>
        <mxCell id="Sq-dpYa1ZeV3uEKY72W7-183" value="" style="endArrow=open;strokeColor=#FF0000;endFill=1;rounded=0;exitX=0.75;exitY=1;exitDx=0;exitDy=0;entryX=0.5;entryY=0;entryDx=0;entryDy=0;" parent="3" source="15" target="Sq-dpYa1ZeV3uEKY72W7-81" edge="1">
          <mxGeometry relative="1" as="geometry">
            <mxPoint x="91" y="313" as="sourcePoint" />
            <mxPoint x="86" y="475" as="targetPoint" />
          </mxGeometry>
        </mxCell>
        <mxCell id="Sq-dpYa1ZeV3uEKY72W7-186" value="" style="endArrow=classic;startArrow=classic;html=1;rounded=0;fillColor=#f8cecc;strokeColor=#FF0000;entryX=1;entryY=0.5;entryDx=0;entryDy=0;exitX=0;exitY=0.5;exitDx=0;exitDy=0;" parent="3" source="Sq-dpYa1ZeV3uEKY72W7-81" target="18" edge="1">
          <mxGeometry width="50" height="50" relative="1" as="geometry">
            <mxPoint x="240" y="490" as="sourcePoint" />
            <mxPoint x="160" y="510" as="targetPoint" />
          </mxGeometry>
        </mxCell>
        <mxCell id="4" value="Graphics in Software documentation" style="swimlane;whiteSpace=wrap;fontFamily=Verdana;" parent="1" vertex="1">
          <mxGeometry x="920" y="120" width="280" height="570" as="geometry" />
        </mxCell>
        <mxCell id="Sq-dpYa1ZeV3uEKY72W7-41" value="Markdown and GitHub" style="swimlane;whiteSpace=wrap;fontFamily=Verdana;" parent="1" vertex="1">
          <mxGeometry x="640" y="120" width="280" height="570" as="geometry" />
        </mxCell>
        <mxCell id="Sq-dpYa1ZeV3uEKY72W7-49" value="Quality in Software documentation" style="swimlane;whiteSpace=wrap;fontFamily=Verdana;" parent="1" vertex="1">
          <mxGeometry x="250" y="120" width="380" height="1330" as="geometry" />
        </mxCell>
        <mxCell id="Sq-dpYa1ZeV3uEKY72W7-52" value="Define common qualityÂ &#xa;Framework" style="" parent="Sq-dpYa1ZeV3uEKY72W7-49" vertex="1">
          <mxGeometry x="10" y="40" width="150" height="50" as="geometry" />
        </mxCell>
        <mxCell id="Sq-dpYa1ZeV3uEKY72W7-54" value="" style="endArrow=open;strokeColor=#FF0000;endFill=1;rounded=0;entryX=0.25;entryY=0;entryDx=0;entryDy=0;" parent="Sq-dpYa1ZeV3uEKY72W7-49" source="Sq-dpYa1ZeV3uEKY72W7-52" target="Sq-dpYa1ZeV3uEKY72W7-132" edge="1">
          <mxGeometry relative="1" as="geometry">
            <mxPoint x="75" y="220" as="targetPoint" />
          </mxGeometry>
        </mxCell>
        <mxCell id="Sq-dpYa1ZeV3uEKY72W7-132" value="&lt;ul&gt;&lt;li&gt;&lt;font style=&quot;font-size: 13px;&quot;&gt;Helpful&lt;/font&gt;&lt;/li&gt;&lt;li&gt;&lt;span style=&quot;background-color: transparent; color: light-dark(rgb(0, 0, 0), rgb(255, 255, 255));&quot;&gt;&lt;font style=&quot;font-size: 13px;&quot;&gt;Comprehensive&lt;/font&gt;&lt;/span&gt;&lt;/li&gt;&lt;li&gt;&lt;font style=&quot;font-size: 13px;&quot;&gt;Searchable&lt;/font&gt;&lt;/li&gt;&lt;li&gt;&lt;font style=&quot;font-size: 13px;&quot;&gt;Visual&lt;/font&gt;&lt;/li&gt;&lt;li&gt;&lt;font style=&quot;font-size: 13px;&quot;&gt;Accessible&lt;/font&gt;&lt;/li&gt;&lt;li&gt;&lt;font style=&quot;font-size: 13px;&quot;&gt;Appropriate tone&lt;/font&gt;&lt;/li&gt;&lt;li&gt;&lt;font style=&quot;font-size: 13px;&quot;&gt;Usable&lt;/font&gt;&lt;/li&gt;&lt;li&gt;&lt;font style=&quot;font-size: 13px;&quot;&gt;Reliable&lt;/font&gt;&lt;/li&gt;&lt;li&gt;&lt;font style=&quot;font-size: 13px;&quot;&gt;Grammatically correct&lt;/font&gt;&lt;/li&gt;&lt;li&gt;&lt;font style=&quot;font-size: 13px;&quot;&gt;Translatable and localization friendly&lt;/font&gt;&lt;/li&gt;&lt;/ul&gt;" style="text;strokeColor=none;fillColor=none;html=1;whiteSpace=wrap;verticalAlign=middle;overflow=hidden;" parent="Sq-dpYa1ZeV3uEKY72W7-49" vertex="1">
          <mxGeometry x="10" y="130" width="260" height="190" as="geometry" />
        </mxCell>
        <mxCell id="Sq-dpYa1ZeV3uEKY72W7-145" value="" style="endArrow=classic;html=1;rounded=0;entryX=0.5;entryY=0;entryDx=0;entryDy=0;fillColor=#f8cecc;strokeColor=#FF0000;exitX=0.5;exitY=1;exitDx=0;exitDy=0;" parent="Sq-dpYa1ZeV3uEKY72W7-49" source="Sq-dpYa1ZeV3uEKY72W7-132" target="Sq-dpYa1ZeV3uEKY72W7-55" edge="1">
          <mxGeometry width="50" height="50" relative="1" as="geometry">
            <mxPoint x="110" y="370" as="sourcePoint" />
            <mxPoint x="50" y="90" as="targetPoint" />
          </mxGeometry>
        </mxCell>
        <mxCell id="Sq-dpYa1ZeV3uEKY72W7-55" value="Quality check" style="" parent="Sq-dpYa1ZeV3uEKY72W7-49" vertex="1">
          <mxGeometry x="85" y="465" width="110" height="50" as="geometry" />
        </mxCell>
        <mxCell id="Sq-dpYa1ZeV3uEKY72W7-141" value="Framework respected" style="rhombus;whiteSpace=wrap;html=1;fontColor=#000000;fillColor=#ffffc0;strokeColor=#ff0000;" parent="Sq-dpYa1ZeV3uEKY72W7-49" vertex="1">
          <mxGeometry x="100" y="565" width="120" height="45" as="geometry" />
        </mxCell>
        <mxCell id="Sq-dpYa1ZeV3uEKY72W7-142" value="" style="edgeStyle=orthogonalEdgeStyle;html=1;align=left;verticalAlign=bottom;endArrow=open;strokeColor=#ff0000;rounded=0;entryX=1;entryY=0.5;entryDx=0;entryDy=0;exitX=1;exitY=0.5;exitDx=0;exitDy=0;" parent="Sq-dpYa1ZeV3uEKY72W7-49" source="Sq-dpYa1ZeV3uEKY72W7-141" target="Sq-dpYa1ZeV3uEKY72W7-55" edge="1">
          <mxGeometry x="-0.1016" y="-20" relative="1" as="geometry">
            <mxPoint x="250" y="490" as="targetPoint" />
            <mxPoint x="275" y="587.5" as="sourcePoint" />
            <Array as="points">
              <mxPoint x="305" y="588" />
              <mxPoint x="305" y="490" />
            </Array>
            <mxPoint as="offset" />
          </mxGeometry>
        </mxCell>
        <mxCell id="Sq-dpYa1ZeV3uEKY72W7-188" value="No" style="edgeLabel;html=1;align=center;verticalAlign=middle;resizable=0;points=[];" parent="Sq-dpYa1ZeV3uEKY72W7-142" vertex="1" connectable="0">
          <mxGeometry x="0.2262" y="-2" relative="1" as="geometry">
            <mxPoint y="-1" as="offset" />
          </mxGeometry>
        </mxCell>
        <mxCell id="Sq-dpYa1ZeV3uEKY72W7-146" value="" style="endArrow=classic;html=1;rounded=0;entryX=0.5;entryY=0;entryDx=0;entryDy=0;exitX=0.5;exitY=1;exitDx=0;exitDy=0;fillColor=#f8cecc;strokeColor=#FF0000;" parent="Sq-dpYa1ZeV3uEKY72W7-49" source="Sq-dpYa1ZeV3uEKY72W7-55" target="Sq-dpYa1ZeV3uEKY72W7-141" edge="1">
          <mxGeometry width="50" height="50" relative="1" as="geometry">
            <mxPoint x="155" y="365" as="sourcePoint" />
            <mxPoint x="215" y="413" as="targetPoint" />
          </mxGeometry>
        </mxCell>
        <mxCell id="Sq-dpYa1ZeV3uEKY72W7-120" value="" style="ellipse;whiteSpace=wrap;html=1;align=center;aspect=fixed;fillColor=none;strokeColor=none;resizable=0;perimeter=centerPerimeter;rotatable=0;allowArrows=0;points=[];outlineConnect=1;" parent="1" vertex="1">
          <mxGeometry x="90" y="700" width="10" height="10" as="geometry" />
        </mxCell>
        <mxCell id="Sq-dpYa1ZeV3uEKY72W7-143" value="" style="edgeStyle=orthogonalEdgeStyle;html=1;align=left;verticalAlign=top;endArrow=block;endSize=8;strokeColor=#ff0000;rounded=0;entryX=1;entryY=0.5;entryDx=0;entryDy=0;exitX=0;exitY=0.5;exitDx=0;exitDy=0;endFill=1;" parent="1" source="Sq-dpYa1ZeV3uEKY72W7-141" target="Sq-dpYa1ZeV3uEKY72W7-83" edge="1">
          <mxGeometry x="-0.9492" y="10" relative="1" as="geometry">
            <mxPoint x="190" y="670" as="targetPoint" />
            <mxPoint x="150" y="700" as="sourcePoint" />
            <Array as="points">
              <mxPoint x="175" y="705" />
            </Array>
            <mxPoint as="offset" />
          </mxGeometry>
        </mxCell>
        <mxCell id="Sq-dpYa1ZeV3uEKY72W7-189" value="Yes" style="edgeLabel;html=1;align=center;verticalAlign=middle;resizable=0;points=[];" parent="Sq-dpYa1ZeV3uEKY72W7-143" vertex="1" connectable="0">
          <mxGeometry x="-0.3973" relative="1" as="geometry">
            <mxPoint as="offset" />
          </mxGeometry>
        </mxCell>
        <mxCell id="Sq-dpYa1ZeV3uEKY72W7-185" value="" style="endArrow=classic;startArrow=classic;html=1;rounded=0;exitX=0;exitY=0.5;exitDx=0;exitDy=0;entryX=1;entryY=0.5;entryDx=0;entryDy=0;fillColor=#f8cecc;strokeColor=#FF0000;" parent="1" source="Sq-dpYa1ZeV3uEKY72W7-55" target="Sq-dpYa1ZeV3uEKY72W7-81" edge="1">
          <mxGeometry width="50" height="50" relative="1" as="geometry">
            <mxPoint x="80" y="420" as="sourcePoint" />
            <mxPoint x="130" y="370" as="targetPoint" />
          </mxGeometry>
        </mxCell>
        <mxCell id="Sq-dpYa1ZeV3uEKY72W7-187" value="" style="endArrow=classic;startArrow=classic;html=1;rounded=0;fillColor=#f8cecc;strokeColor=#FF0000;entryX=0.5;entryY=1;entryDx=0;entryDy=0;exitX=0;exitY=0.5;exitDx=0;exitDy=0;" parent="1" source="18" target="10" edge="1">
          <mxGeometry width="50" height="50" relative="1" as="geometry">
            <mxPoint x="50" y="620" as="sourcePoint" />
            <mxPoint x="-60" y="620" as="targetPoint" />
          </mxGeometry>
        </mxCell>
        <mxCell id="ZXMrNNtx2-XyOc_h4c_R-19" value="Strategy:&lt;div&gt;- Start with first screen.&lt;/div&gt;&lt;div&gt;- Describe pages and their intended use.&lt;/div&gt;&lt;div&gt;- Describe what users see on the screen.&lt;/div&gt;&lt;div&gt;- Organize content in the order it appears on the UI.&lt;/div&gt;" style="text;strokeColor=none;fillColor=none;align=left;verticalAlign=middle;spacingLeft=4;spacingRight=4;overflow=hidden;points=[[0,0.5],[1,0.5]];portConstraint=eastwest;rotatable=0;whiteSpace=wrap;html=1;" vertex="1" parent="1">
          <mxGeometry x="-1050" y="660" width="200" height="170" as="geometry" />
        </mxCell>
        <mxCell id="ZXMrNNtx2-XyOc_h4c_R-24" style="edgeStyle=orthogonalEdgeStyle;rounded=0;orthogonalLoop=1;jettySize=auto;html=1;entryX=0.505;entryY=0;entryDx=0;entryDy=0;entryPerimeter=0;" edge="1" parent="1" source="Sq-dpYa1ZeV3uEKY72W7-112" target="ZXMrNNtx2-XyOc_h4c_R-19">
          <mxGeometry relative="1" as="geometry">
            <mxPoint x="-750" y="660" as="targetPoint" />
          </mxGeometry>
        </mxCell>
        <mxCell id="ZXMrNNtx2-XyOc_h4c_R-39" style="edgeStyle=orthogonalEdgeStyle;rounded=0;orthogonalLoop=1;jettySize=auto;html=1;entryX=0;entryY=0.5;entryDx=0;entryDy=0;strokeColor=light-dark(#FF7F35,#FFFFFF);exitX=1;exitY=0.5;exitDx=0;exitDy=0;" edge="1" parent="1" source="ZXMrNNtx2-XyOc_h4c_R-56" target="ZXMrNNtx2-XyOc_h4c_R-27">
          <mxGeometry relative="1" as="geometry">
            <mxPoint x="-930" y="866" as="sourcePoint" />
          </mxGeometry>
        </mxCell>
        <mxCell id="ZXMrNNtx2-XyOc_h4c_R-56" value="&lt;br&gt;&lt;span style=&quot;color: rgb(0, 0, 0); font-family: Helvetica; font-size: 12px; font-style: normal; font-variant-ligatures: normal; font-variant-caps: normal; font-weight: 400; letter-spacing: normal; orphans: 2; text-align: left; text-indent: 0px; text-transform: none; widows: 2; word-spacing: 0px; -webkit-text-stroke-width: 0px; white-space: normal; background-color: rgb(251, 251, 251); text-decoration-thickness: initial; text-decoration-style: initial; text-decoration-color: initial; float: none; display: inline !important;&quot;&gt;What is the software about?&amp;nbsp;&lt;/span&gt;&lt;br&gt;&lt;br&gt;&lt;div&gt;Who needs it and why (to understand customer expectations)?&lt;/div&gt;&lt;div&gt;&lt;br&gt;&lt;/div&gt;&lt;div&gt;Where are the architectural and business process documents?&lt;/div&gt;&lt;div&gt;&lt;br&gt;&lt;/div&gt;&lt;div&gt;Who can give me info about the software?&lt;/div&gt;" style="text;strokeColor=none;fillColor=none;align=left;verticalAlign=middle;spacingLeft=4;spacingRight=4;overflow=hidden;points=[[0,0.5],[1,0.5]];portConstraint=eastwest;rotatable=0;whiteSpace=wrap;html=1;shadow=1;" vertex="1" parent="1">
          <mxGeometry x="-1140" y="870" width="210" height="160" as="geometry" />
        </mxCell>
      </root>
    </mxGraphModel>
  </diagram>
</mxfile>
